<svg id="Layer_1" enable-background="new 0 0 512 512" height="512" viewBox="0 0 512 512" width="512" xmlns="http://www.w3.org/2000/svg"><g><path d="m442.45 150.04c0 4.56-.46 9.12-1.36 13.55-1.43 6.98-7.57 11.99-14.7 11.99h-.05l-170.34-.56-170.66-.56c-7.23-.02-13.41-5.2-14.71-12.31-.72-3.97-1.08-8.04-1.08-12.1 0-17.57 6.73-34.19 18.95-46.8 9.26-9.56 20.91-16.04 33.65-18.86 7.71-28.83 34.2-49.96 64.99-49.96 3.29 0 6.55.24 9.77.71 11.61-21.23 34.22-35.14 59.09-35.14s47.48 13.91 59.09 35.14c3.22-.47 6.48-.71 9.77-.71 30.79 0 57.28 21.13 64.99 49.96 12.74 2.82 24.39 9.3 33.65 18.85 12.22 12.62 18.95 29.24 18.95 46.8z" fill="#fff16b"/><path d="m442.45 150.04c0 4.56-.46 9.12-1.36 13.55-1.43 6.98-7.57 11.99-14.7 11.99h-.05l-170.34-.56v-175.02c24.87 0 47.48 13.91 59.09 35.14 3.22-.47 6.48-.71 9.77-.71 30.79 0 57.28 21.13 64.99 49.96 12.74 2.82 24.39 9.3 33.65 18.85 12.22 12.62 18.95 29.24 18.95 46.8z" fill="#ffd845"/><path d="m454.57 216.66-18.25 256.77c-1.54 21.63-19.73 38.57-41.41 38.57h-65.7l-73.21-30-73.21 30h-65.7c-21.68 0-39.87-16.94-41.41-38.57l-18.25-256.77c-.29-4.15 1.15-8.24 3.99-11.29 2.84-3.04 6.81-4.77 10.98-4.77h367.2c4.17 0 8.14 1.73 10.98 4.77 2.84 3.05 4.28 7.14 3.99 11.29z" fill="#f9f9f9"/><path d="m454.57 216.66-18.25 256.77c-1.54 21.63-19.73 38.57-41.41 38.57h-65.7l-73.21-30v-281.4h183.6c4.17 0 8.14 1.73 10.98 4.77 2.84 3.05 4.28 7.14 3.99 11.29z" fill="#eceae7"/><path d="m182.79 200.6h146.42v311.4h-146.42z" fill="#ff7d47"/><path d="m256 200.6h73.21v311.4h-73.21z" fill="#ff405c"/><path d="m469.6 170.74v33.73c0 11.65-9.47 21.13-21.12 21.13h-384.96c-11.65 0-21.12-9.48-21.12-21.13v-33.73c0-11.65 9.47-21.12 21.12-21.12h384.96c11.65 0 21.12 9.47 21.12 21.12z" fill="#66666d"/><path d="m354.32 356.3c0 32.52-42.27 57.05-98.32 57.05s-98.32-24.53-98.32-57.05c0-32.53 42.27-57.06 98.32-57.06s98.32 24.53 98.32 57.06z" fill="#fff"/><path d="m354.32 356.3c0 32.52-42.27 57.05-98.32 57.05v-114.11c56.05 0 98.32 24.53 98.32 57.06z" fill="#f9f9f9"/><path d="m469.6 170.74v33.73c0 11.65-9.47 21.13-21.12 21.13h-192.48v-75.98h192.48c11.65 0 21.12 9.47 21.12 21.12z" fill="#444156"/></g></svg>